/vscmnt/brussel_pixiu_data/_data_brussel/112/vsc11236/PredSimResults/SUBJ09opt3D/expIG/worker_07.mot
version=1
nRows=4
nColumns=50
inDegrees=yes
endheader
                time	         pelvis_tilt	         pelvis_list	     pelvis_rotation	           pelvis_tx	           pelvis_ty	           pelvis_tz	       hip_flexion_r	     hip_adduction_r	      hip_rotation_r	        knee_angle_r	       ankle_angle_r	         mtp_angle_r	       hip_flexion_l	     hip_adduction_l	      hip_rotation_l	        knee_angle_l	       ankle_angle_l	         mtp_angle_l	    lumbar_extension	      lumbar_bending	     lumbar_rotation	 ercspn_r/activation	 intobl_r/activation	 extobl_r/activation	    abd_r/activation	    add_r/activation	hamstrings_r/activation	bifemsh_r/activation	glut_max_r/activation	iliopsoas_r/activation	rect_fem_r/activation	  vasti_r/activation	gastroc_r/activation	 soleus_r/activation	tib_ant_r/activation	 ercspn_l/activation	 intobl_l/activation	 extobl_l/activation	    abd_l/activation	    add_l/activation	hamstrings_l/activation	bifemsh_l/activation	glut_max_l/activation	iliopsoas_l/activation	rect_fem_l/activation	  vasti_l/activation	gastroc_l/activation	 soleus_l/activation	tib_ant_l/activation	
          0.00000000	         -4.22856618	         -0.85931856	          8.20660363	          0.00000000	          0.98995064	         -0.00272690	         28.83437456	         -1.63958355	         -8.79059502	         -6.69947477	          3.92387818	          0.24210526	        -13.70598833	         -2.47433718	         -5.48293439	        -10.83376429	          3.43567898	         37.21700917	        -13.37863579	         -1.29009038	         -6.83496506	          0.02580359	          0.15036898	          0.03128629	          0.01000000	          0.22862351	          0.05915071	          0.11621675	          0.09295884	          0.12344583	          0.01256604	          0.01000003	          0.01474600	          0.01000010	          0.32203178	          0.03132504	          0.01000004	          0.01000003	          0.02640494	          0.01214338	          0.01792795	          0.15044270	          0.01327769	          0.01094208	          0.01000008	          0.01000005	          0.28905286	          0.21299676	          0.01214329	
          0.01285982	         -4.26331479	         -0.97463997	          8.16248469	          0.02019104	          0.98773602	         -0.00191262	         28.63932430	         -1.44562333	         -8.94568790	         -8.31780217	          3.53048891	          0.20874031	        -14.28616349	         -2.82480030	         -5.96257091	        -11.71447104	          2.27557511	         38.78791166	        -12.84226720	         -0.84109562	         -7.04135321	          0.02124926	          0.12382873	          0.02576424	          0.07939035	          0.19383774	          0.06303411	          0.09570441	          0.12345852	          0.10165754	          0.01034813	          0.01000003	          0.01214338	          0.01214330	          0.36290546	          0.02579617	          0.01000000	          0.01000005	          0.02174445	          0.01000010	          0.01476368	          0.12388950	          0.01093418	          0.01000021	          0.01000006	          0.01000005	          0.25535467	          0.18958533	          0.01000000	
          0.02571965	         -4.27888061	         -1.09580536	          8.08361758	          0.04059190	          0.98585655	         -0.00100990	         28.36141289	         -1.24260223	         -9.10175020	         -9.81896812	          2.93722347	          0.20204316	        -14.64189889	         -3.20907782	         -6.45751107	        -13.03502970	          0.99996104	         40.25969683	        -12.30085303	         -0.38484557	         -7.21431669	          0.02597240	          0.10197285	          0.02121683	          0.13380636	          0.21041079	          0.05327613	          0.07881251	          0.15917015	          0.08371489	          0.01000001	          0.01000006	          0.01000007	          0.01000000	          0.40864795	          0.03031654	          0.01000000	          0.01000001	          0.01790653	          0.01000002	          0.01215790	          0.10202293	          0.01000000	          0.01963203	          0.01000008	          0.01000003	          0.21028436	          0.15620582	          0.00999999	
          0.03857947	         -4.27660468	         -1.21890576	          7.97217856	          0.06083674	          0.98452329	         -0.00001093	         28.16450047	         -1.04234694	         -9.25710092	        -11.47850472	          2.38139420	          0.16786527	        -14.66264246	         -3.63472471	         -6.95974693	        -14.95319695	         -0.34816150	         41.44590510	        -11.79710390	          0.07549628	         -7.35126701	          0.03105356	          0.08397455	          0.01747204	          0.18103747	          0.23719639	          0.05393383	          0.06490204	          0.15653821	          0.06893914	          0.01000002	          0.10020479	          0.01000004	          0.01000003	          0.43122982	          0.08505142	          0.01000002	          0.01000001	          0.01474601	          0.03929290	          0.02690357	          0.08401583	          0.01000001	          0.01616710	          0.01000003	          0.01000004	          0.17316899	          0.12863536	          0.01000000	
